<svg width="38" height="25" viewBox="0 0 38 25" fill="none" xmlns="http://www.w3.org/2000/svg">
<g filter="url(#filter0_di_1_2)">
<path d="M19.3359 0.195312L13.8164 17H10.4531L4.95703 0.195312H8.77734L12.1289 11.4102L15.4922 0.195312H19.3359ZM19.9688 5.23438C19.9688 4.53906 20.1016 3.88672 20.3672 3.27734C20.6328 2.66797 20.9922 2.13672 21.4453 1.68359C21.9062 1.22266 22.4414 0.859375 23.0508 0.59375C23.6602 0.328125 24.3125 0.195312 25.0078 0.195312H32.7188V3.55859H25.0078C24.7734 3.55859 24.5547 3.60156 24.3516 3.6875C24.1484 3.77344 23.9688 3.89453 23.8125 4.05078C23.6641 4.19922 23.5469 4.375 23.4609 4.57812C23.375 4.78125 23.332 5 23.332 5.23438C23.332 5.46875 23.375 5.69141 23.4609 5.90234C23.5469 6.10547 23.6641 6.28516 23.8125 6.44141C23.9688 6.58984 24.1484 6.70703 24.3516 6.79297C24.5547 6.87891 24.7734 6.92188 25.0078 6.92188H28.3711C29.0664 6.92188 29.7188 7.05469 30.3281 7.32031C30.9453 7.57812 31.4805 7.9375 31.9336 8.39844C32.3945 8.85156 32.7539 9.38672 33.0117 10.0039C33.2773 10.6133 33.4102 11.2656 33.4102 11.9609C33.4102 12.6562 33.2773 13.3086 33.0117 13.918C32.7539 14.5273 32.3945 15.0625 31.9336 15.5234C31.4805 15.9766 30.9453 16.3359 30.3281 16.6016C29.7188 16.8672 29.0664 17 28.3711 17H20.9062V13.6367H28.3711C28.6055 13.6367 28.8242 13.5938 29.0273 13.5078C29.2305 13.4219 29.4062 13.3047 29.5547 13.1562C29.7109 13 29.832 12.8203 29.918 12.6172C30.0039 12.4141 30.0469 12.1953 30.0469 11.9609C30.0469 11.7266 30.0039 11.5078 29.918 11.3047C29.832 11.1016 29.7109 10.9258 29.5547 10.7773C29.4062 10.6211 29.2305 10.5 29.0273 10.4141C28.8242 10.3281 28.6055 10.2852 28.3711 10.2852H25.0078C24.3125 10.2852 23.6602 10.1523 23.0508 9.88672C22.4414 9.62109 21.9062 9.26172 21.4453 8.80859C20.9922 8.34766 20.6328 7.8125 20.3672 7.20312C20.1016 6.58594 19.9688 5.92969 19.9688 5.23438Z" fill="#C082B3" fill-opacity="0.7" shape-rendering="crispEdges"/>
<path d="M19.3359 0.195312L13.8164 17H10.4531L4.95703 0.195312H8.77734L12.1289 11.4102L15.4922 0.195312H19.3359ZM19.9688 5.23438C19.9688 4.53906 20.1016 3.88672 20.3672 3.27734C20.6328 2.66797 20.9922 2.13672 21.4453 1.68359C21.9062 1.22266 22.4414 0.859375 23.0508 0.59375C23.6602 0.328125 24.3125 0.195312 25.0078 0.195312H32.7188V3.55859H25.0078C24.7734 3.55859 24.5547 3.60156 24.3516 3.6875C24.1484 3.77344 23.9688 3.89453 23.8125 4.05078C23.6641 4.19922 23.5469 4.375 23.4609 4.57812C23.375 4.78125 23.332 5 23.332 5.23438C23.332 5.46875 23.375 5.69141 23.4609 5.90234C23.5469 6.10547 23.6641 6.28516 23.8125 6.44141C23.9688 6.58984 24.1484 6.70703 24.3516 6.79297C24.5547 6.87891 24.7734 6.92188 25.0078 6.92188H28.3711C29.0664 6.92188 29.7188 7.05469 30.3281 7.32031C30.9453 7.57812 31.4805 7.9375 31.9336 8.39844C32.3945 8.85156 32.7539 9.38672 33.0117 10.0039C33.2773 10.6133 33.4102 11.2656 33.4102 11.9609C33.4102 12.6562 33.2773 13.3086 33.0117 13.918C32.7539 14.5273 32.3945 15.0625 31.9336 15.5234C31.4805 15.9766 30.9453 16.3359 30.3281 16.6016C29.7188 16.8672 29.0664 17 28.3711 17H20.9062V13.6367H28.3711C28.6055 13.6367 28.8242 13.5938 29.0273 13.5078C29.2305 13.4219 29.4062 13.3047 29.5547 13.1562C29.7109 13 29.832 12.8203 29.918 12.6172C30.0039 12.4141 30.0469 12.1953 30.0469 11.9609C30.0469 11.7266 30.0039 11.5078 29.918 11.3047C29.832 11.1016 29.7109 10.9258 29.5547 10.7773C29.4062 10.6211 29.2305 10.5 29.0273 10.4141C28.8242 10.3281 28.6055 10.2852 28.3711 10.2852H25.0078C24.3125 10.2852 23.6602 10.1523 23.0508 9.88672C22.4414 9.62109 21.9062 9.26172 21.4453 8.80859C20.9922 8.34766 20.6328 7.8125 20.3672 7.20312C20.1016 6.58594 19.9688 5.92969 19.9688 5.23438Z" fill="#856363" fill-opacity="0.5" shape-rendering="crispEdges"/>
</g>
<defs>
<filter id="filter0_di_1_2" x="0.957031" y="0.195312" width="36.4531" height="24.8047" filterUnits="userSpaceOnUse" color-interpolation-filters="sRGB">
<feFlood flood-opacity="0" result="BackgroundImageFix"/>
<feColorMatrix in="SourceAlpha" type="matrix" values="0 0 0 0 0 0 0 0 0 0 0 0 0 0 0 0 0 0 127 0" result="hardAlpha"/>
<feOffset dy="4"/>
<feGaussianBlur stdDeviation="2"/>
<feComposite in2="hardAlpha" operator="out"/>
<feColorMatrix type="matrix" values="0 0 0 0 0 0 0 0 0 0 0 0 0 0 0 0 0 0 0.25 0"/>
<feBlend mode="normal" in2="BackgroundImageFix" result="effect1_dropShadow_1_2"/>
<feBlend mode="normal" in="SourceGraphic" in2="effect1_dropShadow_1_2" result="shape"/>
<feColorMatrix in="SourceAlpha" type="matrix" values="0 0 0 0 0 0 0 0 0 0 0 0 0 0 0 0 0 0 127 0" result="hardAlpha"/>
<feOffset dy="4"/>
<feGaussianBlur stdDeviation="2"/>
<feComposite in2="hardAlpha" operator="arithmetic" k2="-1" k3="1"/>
<feColorMatrix type="matrix" values="0 0 0 0 0 0 0 0 0 0 0 0 0 0 0 0 0 0 0.25 0"/>
<feBlend mode="normal" in2="shape" result="effect2_innerShadow_1_2"/>
</filter>
</defs>
</svg>
